name rise36.2859peak64.2979fall75.1499.mot
datacolumns 19
datarows 29
range 12.91828100000000 12.96495400000000
endheader
time	ground_force1_vx	ground_force1_vy	ground_force1_vz	ground_force1_px	ground_force1_py	ground_force1_pz	ground_force2_vx	ground_force2_vy	ground_force2_vz	ground_force2_px	ground_force2_py	ground_force2_pz	ground_torque1_x	ground_torque1_y	ground_torque1_z	ground_torque2_x	ground_torque2_y	ground_torque2_z	
12.91828100000000	-37.81937300000000	799.20750799999996	57.30576000000000	0.21392400000000	0.00000000000000	0.10446500000000	-1.63439800000000	6.97869100000000	1.41201600000000	0.00000000000000	0.00000000000000	0.00000000000000	0.00000000000000	31.31496300000000	0.00000000000000	0.00000000000000	0.54159700000000	0.00000000000000	
12.91995400000000	-38.32016400000000	797.38711499999999	57.20998500000000	0.21278500000000	0.00000000000000	0.10440400000000	-2.33481000000000	11.16232800000000	2.07336000000000	0.00000000000000	0.00000000000000	0.00000000000000	0.00000000000000	31.20480700000000	0.00000000000000	0.00000000000000	0.80241500000000	0.00000000000000	
12.92161400000000	-38.83429200000000	795.46947699999998	57.09553300000000	0.21163300000000	0.00000000000000	0.10434000000000	-3.09621600000000	16.04741700000000	2.80799400000000	0.00000000000000	0.00000000000000	0.00000000000000	0.00000000000000	31.09022700000000	0.00000000000000	0.00000000000000	1.09403300000000	0.00000000000000	
12.92328000000000	-39.36192400000000	793.45385499999998	56.96197400000000	0.21047000000000	0.00000000000000	0.10427400000000	-3.89206700000000	21.56369700000000	3.59490100000000	0.00000000000000	0.00000000000000	0.00000000000000	0.00000000000000	30.97127100000000	0.00000000000000	0.00000000000000	1.40867100000000	0.00000000000000	
12.92495900000000	-39.90317800000000	791.33944899999995	56.80890800000000	0.20929600000000	0.00000000000000	0.10420600000000	-4.69209500000000	27.61426600000000	4.40931800000000	0.39391300000000	0.00000000000000	-0.09111900000000	0.00000000000000	30.84799300000000	0.00000000000000	0.00000000000000	3.04640200000000	0.00000000000000	
12.92661800000000	-40.45811400000000	789.12539600000002	56.63596500000000	0.20811100000000	0.00000000000000	0.10413500000000	-5.46448300000000	34.08378900000000	5.22455500000000	0.39559100000000	0.00000000000000	-0.09207000000000	0.00000000000000	30.72045300000000	0.00000000000000	0.00000000000000	3.63277500000000	0.00000000000000	
12.92828100000000	-41.02674000000000	786.81076199999995	56.44281200000000	0.20691800000000	0.00000000000000	0.10406200000000	-6.17820600000000	40.84845700000000	6.01402100000000	0.39722700000000	0.00000000000000	-0.09290700000000	0.00000000000000	30.58871900000000	0.00000000000000	0.00000000000000	4.20964700000000	0.00000000000000	
12.92995900000000	-41.60900200000000	784.39454100000000	56.22914700000000	0.20571600000000	0.00000000000000	0.10398600000000	-6.80524600000000	47.78628700000000	6.75317600000000	0.39883000000000	0.00000000000000	-0.09365000000000	0.00000000000000	30.45286100000000	0.00000000000000	0.00000000000000	4.76055000000000	0.00000000000000	
12.93162100000000	-42.20478400000000	781.87565400000005	55.99470400000000	0.20450700000000	0.00000000000000	0.10390700000000	-7.32239100000000	54.78638100000000	7.42115800000000	0.40040400000000	0.00000000000000	-0.09431500000000	0.00000000000000	30.31295700000000	0.00000000000000	0.00000000000000	5.27128000000000	0.00000000000000	
12.93328800000000	-42.81390900000000	779.25294199999996	55.73925300000000	0.20329200000000	0.00000000000000	0.10382500000000	-7.71243700000000	61.75615600000000	8.00193300000000	0.40195500000000	0.00000000000000	-0.09491400000000	0.00000000000000	30.16908500000000	0.00000000000000	0.00000000000000	5.73070000000000	0.00000000000000	
12.93494900000000	-43.43612800000000	776.52517100000000	55.46260000000000	0.20207200000000	0.00000000000000	0.10374100000000	-7.96475200000000	68.62603900000001	8.48487700000000	0.40348700000000	0.00000000000000	-0.09545600000000	0.00000000000000	30.02132800000000	0.00000000000000	0.00000000000000	6.13118800000000	0.00000000000000	
12.93661700000000	-44.07112900000000	773.69102799999996	55.16458800000000	0.20084900000000	0.00000000000000	0.10365400000000	-8.07520900000000	75.35153000000000	8.86484600000000	0.40500200000000	0.00000000000000	-0.09595000000000	0.00000000000000	29.86976900000000	0.00000000000000	0.00000000000000	6.46873000000000	0.00000000000000	
12.93828400000000	-44.71852500000000	770.74912500000005	54.84509900000000	0.19962300000000	0.00000000000000	0.10356300000000	-8.04560500000000	81.91286500000000	9.14177500000000	0.40650500000000	0.00000000000000	-0.09640200000000	0.00000000000000	29.71449200000000	0.00000000000000	0.00000000000000	6.74269900000000	0.00000000000000	
12.93995900000000	-45.37785800000000	767.69799699999999	54.50405100000000	0.19839600000000	0.00000000000000	0.10346900000000	-7.88270200000000	88.31269500000001	9.31993100000000	0.40799700000000	0.00000000000000	-0.09681700000000	0.00000000000000	29.55558100000000	0.00000000000000	0.00000000000000	6.95540100000000	0.00000000000000	
12.94161300000000	-46.04859600000000	764.53610600000002	54.14140300000000	0.19717000000000	0.00000000000000	0.10337300000000	-7.59701400000000	94.57232500000001	9.40693800000000	0.40948100000000	0.00000000000000	-0.09720100000000	0.00000000000000	29.39311700000000	0.00000000000000	0.00000000000000	7.11145400000000	0.00000000000000	
12.94328600000000	-46.73013000000000	761.26184599999999	53.75715300000000	0.19594500000000	0.00000000000000	0.10327300000000	-7.20150800000000	100.72706800000000	9.41270200000000	0.41095800000000	0.00000000000000	-0.09755600000000	0.00000000000000	29.22718000000000	0.00000000000000	0.00000000000000	7.21707800000000	0.00000000000000	
12.94495400000000	-47.42177500000000	757.87354200000004	53.35133500000000	0.19472400000000	0.00000000000000	0.10316900000000	-6.71032400000000	106.82125800000000	9.34832500000000	0.41243000000000	0.00000000000000	-0.09788600000000	0.00000000000000	29.05784500000000	0.00000000000000	0.00000000000000	7.27938600000000	0.00000000000000	
12.94661700000000	-48.12276800000000	754.36946200000000	52.92402600000000	0.19350800000000	0.00000000000000	0.10306200000000	-6.13763000000000	112.90339200000000	9.22512200000000	0.41389800000000	0.00000000000000	-0.09819300000000	0.00000000000000	28.88518400000000	0.00000000000000	0.00000000000000	7.30571600000000	0.00000000000000	
12.94828300000000	-48.83226800000000	750.74781499999995	52.47534100000000	0.19229700000000	0.00000000000000	0.10295200000000	-5.49666100000000	119.02174800000000	9.05377500000000	0.41536200000000	0.00000000000000	-0.09848000000000	0.00000000000000	28.70926200000000	0.00000000000000	0.00000000000000	7.30305600000000	0.00000000000000	
12.94994900000000	-49.54935200000000	747.00676399999998	52.00543300000000	0.19109500000000	0.00000000000000	0.10283900000000	-4.79900700000000	125.22076600000000	8.84369600000000	0.41682500000000	0.00000000000000	-0.09875000000000	0.00000000000000	28.53013800000000	0.00000000000000	0.00000000000000	7.27760000000000	0.00000000000000	
12.95161800000000	-50.27302200000000	743.14442599999995	51.51449700000000	0.18990200000000	0.00000000000000	0.10272100000000	-4.05414800000000	131.53832100000000	8.60258500000000	0.41828500000000	0.00000000000000	-0.09900200000000	0.00000000000000	28.34786300000000	0.00000000000000	0.00000000000000	7.23442700000000	0.00000000000000	
12.95328000000000	-51.00219600000000	739.15888700000005	51.00276400000000	0.18872000000000	0.00000000000000	0.10260000000000	-3.26922600000000	138.00393900000000	8.33620000000000	0.41974400000000	0.00000000000000	-0.09924000000000	0.00000000000000	28.16247900000000	0.00000000000000	0.00000000000000	7.17733200000000	0.00000000000000	
12.95495400000000	-51.73571700000000	735.04820400000006	50.47050600000000	0.18755000000000	0.00000000000000	0.10247600000000	-2.44904800000000	144.63793899999999	8.04831700000000	0.42120100000000	0.00000000000000	-0.09946400000000	0.00000000000000	27.97402000000000	0.00000000000000	0.00000000000000	7.10877400000000	0.00000000000000	
12.95661600000000	-52.47234700000000	730.81041700000003	49.91803100000000	0.18639400000000	0.00000000000000	0.10234800000000	-1.59625200000000	151.45136800000000	7.74083700000000	0.42265800000000	0.00000000000000	-0.09967600000000	0.00000000000000	27.78250900000000	0.00000000000000	0.00000000000000	7.02993100000000	0.00000000000000	
12.95828800000000	-53.21077500000000	726.44355800000005	49.34568700000000	0.18525400000000	0.00000000000000	0.10221600000000	-0.71161500000000	158.44662600000001	7.41402100000000	0.42411300000000	0.00000000000000	-0.09987600000000	0.00000000000000	27.58795800000000	0.00000000000000	0.00000000000000	6.94084500000000	0.00000000000000	
12.95995200000000	-53.94961100000000	721.94566099999997	48.75385700000000	0.18413100000000	0.00000000000000	0.10208100000000	0.20555700000000	165.61857100000000	7.06680500000000	0.42556700000000	0.00000000000000	-0.10006600000000	0.00000000000000	27.39036900000000	0.00000000000000	0.00000000000000	6.84062300000000	0.00000000000000	
12.96161400000000	-54.68739300000000	717.31477299999995	48.14296400000000	0.18302700000000	0.00000000000000	0.10194100000000	1.15699500000000	172.95596200000000	6.69714900000000	0.42701900000000	0.00000000000000	-0.10024600000000	0.00000000000000	27.18973200000000	0.00000000000000	0.00000000000000	6.72766900000000	0.00000000000000	
12.96328300000000	-55.42258800000000	712.54896699999995	47.51346200000000	0.18194300000000	0.00000000000000	0.10179800000000	2.14503700000000	180.44304800000000	6.30240400000000	0.42846900000000	0.00000000000000	-0.10041600000000	0.00000000000000	26.98602500000000	0.00000000000000	0.00000000000000	6.59993000000000	0.00000000000000	
12.96495400000000	-56.15359400000000	707.64635099999998	46.86584400000000	0.18088000000000	0.00000000000000	0.10165100000000	3.17222500000000	188.06117900000001	5.87965900000000	0.42991500000000	0.00000000000000	-0.10057900000000	0.00000000000000	26.77921200000000	0.00000000000000	0.00000000000000	6.45513000000000	0.00000000000000	
